HIERARCHY
ROOT joint_Root
{
	OFFSET 0.0 0.0 0.0
	CHANNELS 6 Xposition Yposition Zposition Zrotation Xrotation Yrotation 
	JOINT Hips
	{
		OFFSET 4.5925 91.4895 -427.239
		CHANNELS 6 Xposition Yposition Zposition Zrotation Xrotation Yrotation 
		JOINT Spine
		{
			OFFSET 15.7357 0.0 0.0
			CHANNELS 6 Xposition Yposition Zposition Zrotation Xrotation Yrotation 
			JOINT Chest
			{
				OFFSET 8.98455 -0.406207 0.0
				CHANNELS 6 Xposition Yposition Zposition Zrotation Xrotation Yrotation 
				JOINT Neck
				{
					OFFSET 16.3773 0.0 0.0
					CHANNELS 6 Xposition Yposition Zposition Zrotation Xrotation Yrotation 
					JOINT Head
					{
						OFFSET 6.45672 0.0 0.0
						CHANNELS 6 Xposition Yposition Zposition Zrotation Xrotation Yrotation 
						End Site
						{
							OFFSET 0.0 0.0 0.0
						}
					}
				}
				JOINT Shoulder_L
				{
					OFFSET 12.9942 -0.242716 4.98039
					CHANNELS 6 Xposition Yposition Zposition Zrotation Xrotation Yrotation 
					JOINT UpperArm_L
					{
						OFFSET 5.34809 0.0 0.0
						CHANNELS 6 Xposition Yposition Zposition Zrotation Xrotation Yrotation 
						JOINT LowerArm_L
						{
							OFFSET 24.3286 1.87007e-05 0.0
							CHANNELS 6 Xposition Yposition Zposition Zrotation Xrotation Yrotation 
							JOINT Hand_L
							{
								OFFSET 22.2916 0.0 0.0
								CHANNELS 6 Xposition Yposition Zposition Zrotation Xrotation Yrotation 
								End Site
								{
									OFFSET 0.0 0.0 0.0
								}
							}
						}
					}
				}
				JOINT Shoulder_R
				{
					OFFSET 12.9945 -0.242716 -4.98039
					CHANNELS 6 Xposition Yposition Zposition Zrotation Xrotation Yrotation 
					JOINT UpperArm_R
					{
						OFFSET -5.34813 0.0 0.0
						CHANNELS 6 Xposition Yposition Zposition Zrotation Xrotation Yrotation 
						JOINT LowerArm_R
						{
							OFFSET -24.3289 0.000322201 0.0
							CHANNELS 6 Xposition Yposition Zposition Zrotation Xrotation Yrotation 
							JOINT Hand_R
							{
								OFFSET -22.2915 -0.000108084 0.0
								CHANNELS 6 Xposition Yposition Zposition Zrotation Xrotation Yrotation 
								End Site
								{
									OFFSET 0.0 0.0 0.0
								}
							}
						}
					}
				}
			}
		}
		JOINT UpperLeg_L
		{
			OFFSET -2.19248 -6.46944 0.0
			CHANNELS 6 Xposition Yposition Zposition Zrotation Xrotation Yrotation 
			JOINT LowerLeg_L
			{
				OFFSET 39.0811 0.0 -1.23785e-05
				CHANNELS 6 Xposition Yposition Zposition Zrotation Xrotation Yrotation 
				JOINT Foot_L
				{
					OFFSET 40.9854 0.0 -1.26872e-05
					CHANNELS 6 Xposition Yposition Zposition Zrotation Xrotation Yrotation 
					JOINT Toes_L
					{
						OFFSET 11.7543 0.0 0.0
						CHANNELS 6 Xposition Yposition Zposition Zrotation Xrotation Yrotation 
						End Site
						{
							OFFSET 0.0 0.0 0.0
						}
					}
				}
			}
		}
		JOINT UpperLeg_R
		{
			OFFSET -2.19251 6.46944 0.0
			CHANNELS 6 Xposition Yposition Zposition Zrotation Xrotation Yrotation 
			JOINT LowerLeg_R
			{
				OFFSET -39.0811 -0.00228153 -0.0401928
				CHANNELS 6 Xposition Yposition Zposition Zrotation Xrotation Yrotation 
				JOINT Foot_R
				{
					OFFSET -40.9854 0.0 0.0
					CHANNELS 6 Xposition Yposition Zposition Zrotation Xrotation Yrotation 
					JOINT Toes_R
					{
						OFFSET -11.7543 0.0 0.0
						CHANNELS 6 Xposition Yposition Zposition Zrotation Xrotation Yrotation 
						End Site
						{
							OFFSET 0.0 0.0 0.0
						}
					}
				}
			}
		}
	}
}
MOTION
Frames:	7
Frame Time:	0.0333333
0.000000 0.000000 0.000000 0.000000 0.000000 -0.000000 1.856000 90.145300 3.371770 89.358300 -5.431400 12.563600 15.735700 0.000005 -0.000001 95.644600 84.501400 -97.354900 8.984550 -0.406207 -0.000000 3.197930 1.148620 -3.449250 16.377300 -0.000001 -0.000001 24.921200 1.264370 0.903246 6.456720 -0.000001 -0.000000 15.849300 2.092170 -13.048500 12.994200 -0.242716 4.980390 -91.343200 4.418490 -73.072000 5.348090 -0.000007 -0.000001 -62.618900 36.575700 -12.627800 24.328600 0.000019 0.000005 7.997350 23.743500 -19.235200 22.291600 -0.000001 0.000005 9.618210 5.322540 -0.569004 12.994500 -0.242716 -4.980390 90.352200 -1.385920 -75.740900 -5.348130 -0.000001 -0.000004 -57.725900 -41.033100 -73.674100 -24.328900 0.000322 -0.000009 6.106500 2.026880 -71.711100 -22.291500 -0.000108 -0.000004 23.291300 5.439170 -4.256840 -2.192480 -6.469440 -0.000000 -174.675000 -14.603800 5.023990 39.081100 -0.000007 -0.000012 -0.157139 0.251465 32.001300 40.985400 -0.000006 -0.000013 1.664810 4.521040 -74.194300 11.754300 -0.000000 0.000003 -0.000137 -0.001346 -16.628800 -2.192510 6.469440 -0.000001 170.321000 19.183600 -173.423000 -39.081100 -0.002282 -0.040193 -0.221818 0.379697 30.663500 -40.985400 0.000008 0.000006 2.100720 14.749100 -73.442200 -11.754300 -0.000006 -0.000006 -0.002096 -0.029907 -17.789200
0.000000 0.000000 0.000000 0.000000 0.000000 -0.000000 1.876950 90.119700 3.462380 89.343500 -5.454610 12.572000 15.735700 0.000005 -0.000001 96.015100 84.422100 -97.771500 8.984550 -0.406207 -0.000000 3.350260 1.235290 -3.545280 16.377300 -0.000001 -0.000001 25.014500 1.377430 1.047130 6.456720 -0.000001 -0.000000 15.844700 2.090190 -12.900200 12.994200 -0.242716 4.980390 -91.450600 4.674360 -72.738200 5.348090 -0.000007 -0.000001 -62.094100 36.637200 -12.979200 24.328600 0.000019 0.000005 7.996460 23.679400 -19.278600 22.291600 -0.000001 0.000005 9.631770 5.322280 -0.561620 12.994500 -0.242716 -4.980390 90.277400 -1.074510 -75.522400 -5.348130 -0.000001 -0.000004 -57.594000 -41.195200 -73.681300 -24.328900 0.000322 -0.000009 6.103520 2.020130 -71.759600 -22.291500 -0.000108 -0.000004 23.315700 5.441700 -4.345640 -2.192480 -6.469440 -0.000000 -174.670000 -14.597300 5.067700 39.081100 -0.000007 -0.000012 -0.155440 0.248056 32.072800 40.985400 -0.000006 -0.000013 1.668200 4.481990 -74.301100 11.754300 -0.000000 0.000003 -0.000136 -0.001337 -16.628500 -2.192510 6.469440 -0.000001 170.300000 19.155000 -173.386000 -39.081100 -0.002282 -0.040193 -0.222682 0.379999 30.739900 -40.985400 0.000008 0.000006 2.196870 14.716000 -73.568400 -11.754300 -0.000006 -0.000006 -0.002311 -0.032546 -17.896600
0.000000 0.000000 0.000000 0.000000 0.000000 -0.000000 1.885100 90.097300 3.544510 89.328900 -5.468820 12.647000 15.735700 0.000005 -0.000001 96.273800 84.328300 -98.089000 8.984550 -0.406207 -0.000000 3.533450 1.305070 -3.666810 16.377300 -0.000001 -0.000001 25.335200 1.445890 1.150460 6.456720 -0.000001 -0.000000 15.766800 2.004110 -12.456000 12.994200 -0.242716 4.980390 -91.568000 4.949870 -72.398800 5.348090 -0.000007 -0.000001 -61.698500 36.581300 -13.135500 24.328600 0.000019 0.000005 7.967370 23.434000 -19.388400 22.291600 -0.000001 0.000005 9.718340 5.322380 -0.564236 12.994500 -0.242716 -4.980390 90.199600 -0.764546 -75.364600 -5.348130 -0.000001 -0.000004 -57.457800 -41.277700 -73.495700 -24.328900 0.000322 -0.000009 6.085890 2.005030 -71.837600 -22.291500 -0.000108 -0.000004 23.285800 5.441180 -4.327310 -2.192480 -6.469440 -0.000000 -174.638000 -14.562500 5.182610 39.081100 -0.000007 -0.000012 -0.159619 0.254173 32.128900 40.985400 -0.000006 -0.000013 1.656810 4.438960 -74.393000 11.754300 -0.000000 0.000003 -0.000135 -0.001332 -16.628300 -2.192510 6.469440 -0.000001 170.269000 19.146700 -173.273000 -39.081100 -0.002282 -0.040193 -0.218023 0.371262 30.801100 -40.985400 0.000008 0.000006 2.278320 14.699500 -73.679800 -11.754300 -0.000006 -0.000006 -0.002282 -0.032197 -17.882400
0.000000 0.000000 0.000000 0.000000 0.000000 -0.000000 1.888080 90.077200 3.624240 89.310500 -5.548900 12.660500 15.735700 0.000005 -0.000001 96.685000 84.245000 -98.566500 8.984550 -0.406207 -0.000000 3.692400 1.404950 -3.804240 16.377300 -0.000001 -0.000001 25.670700 1.465020 1.338320 6.456720 -0.000001 -0.000000 15.806200 1.812220 -11.960800 12.994200 -0.242716 4.980390 -91.653700 5.123070 -72.083200 5.348090 -0.000007 -0.000001 -61.550200 36.401900 -13.165900 24.328600 0.000019 0.000005 8.019450 23.461300 -19.487300 22.291600 -0.000001 0.000005 9.651220 5.323480 -0.596267 12.994500 -0.242716 -4.980390 90.129700 -0.492132 -75.236400 -5.348130 -0.000001 -0.000004 -57.438500 -41.284400 -73.189900 -24.328900 0.000322 -0.000009 6.078250 1.986480 -71.973300 -22.291500 -0.000108 -0.000004 23.274900 5.439690 -4.275010 -2.192480 -6.469440 -0.000000 -174.627000 -14.514700 5.246410 39.081100 -0.000007 -0.000012 -0.164468 0.261467 32.171000 40.985400 -0.000006 -0.000013 1.618480 4.323980 -74.481000 11.754300 -0.000000 0.000003 -0.000125 -0.001246 -16.625100 -2.192510 6.469440 -0.000001 170.282000 19.066000 -173.237000 -39.081100 -0.002282 -0.040193 -0.213769 0.363528 30.842500 -40.985400 0.000008 0.000006 2.278520 14.713900 -73.750100 -11.754300 -0.000006 -0.000006 -0.002111 -0.030097 -17.796900
0.000000 0.000000 0.000000 0.000000 0.000000 -0.000000 1.888240 90.060200 3.697540 89.267400 -5.694830 12.632900 15.735700 0.000005 -0.000001 97.279100 84.186300 -99.215200 8.984550 -0.406207 -0.000000 3.797810 1.538230 -3.918940 16.377300 -0.000001 -0.000001 26.087800 1.395110 1.543880 6.456720 -0.000001 -0.000000 15.951500 1.551050 -11.473400 12.994200 -0.242716 4.980390 -91.685000 5.153920 -71.868200 5.348090 -0.000007 -0.000001 -61.691800 36.331700 -12.954100 24.328600 0.000019 0.000005 8.025010 23.355500 -19.577000 22.291600 -0.000001 0.000005 9.558160 5.323180 -0.587475 12.994500 -0.242716 -4.980390 90.066100 -0.249076 -75.136600 -5.348130 -0.000001 -0.000004 -57.398200 -41.218200 -72.849400 -24.328900 0.000322 -0.000009 6.128170 2.001730 -71.983400 -22.291500 -0.000108 -0.000004 23.293300 5.437820 -4.209600 -2.192480 -6.469440 -0.000000 -174.586000 -14.556500 5.266880 39.081100 -0.000007 -0.000012 -0.163950 0.260148 32.220200 40.985400 -0.000006 -0.000013 1.583330 4.211560 -74.566200 11.754300 -0.000000 0.000003 -0.000135 -0.001329 -16.628200 -2.192510 6.469440 -0.000001 170.343000 18.971800 -173.251000 -39.081100 -0.002282 -0.040193 -0.215124 0.365341 30.874000 -40.985400 0.000008 0.000006 2.333620 14.716500 -73.820600 -11.754300 -0.000006 -0.000006 -0.002196 -0.031145 -17.839600
0.000000 0.000000 0.000000 0.000000 0.000000 -0.000000 1.880440 90.044300 3.767660 89.204100 -5.799440 12.653500 15.735700 0.000005 -0.000001 97.514400 84.116600 -99.485200 8.984550 -0.406207 -0.000000 3.931620 1.602490 -3.992450 16.377300 -0.000001 -0.000001 26.510700 1.338810 1.686840 6.456720 -0.000001 -0.000000 16.220900 1.241830 -11.088800 12.994200 -0.242716 4.980390 -91.665400 5.054900 -71.738200 5.348090 -0.000007 -0.000001 -62.012000 36.523000 -12.595700 24.328600 0.000019 0.000005 8.005170 23.230300 -19.623500 22.291600 -0.000001 0.000005 9.434790 5.322880 -0.578954 12.994500 -0.242716 -4.980390 90.019900 -0.074789 -75.100400 -5.348130 -0.000001 -0.000004 -57.427100 -41.105700 -72.635200 -24.328900 0.000322 -0.000009 6.183570 2.036000 -71.849800 -22.291500 -0.000108 -0.000004 23.209700 5.438620 -4.237730 -2.192480 -6.469440 -0.000000 -174.543000 -14.456500 5.319750 39.081100 -0.000007 -0.000012 -0.164834 0.260985 32.276100 40.985400 -0.000006 -0.000013 1.520740 4.044780 -74.647600 11.754300 -0.000000 0.000003 -0.000143 -0.001394 -16.630600 -2.192510 6.469440 -0.000001 170.402000 18.930300 -173.200000 -39.081100 -0.002282 -0.040193 -0.209943 0.356362 30.896100 -40.985400 0.000008 0.000006 2.437760 14.744500 -73.899300 -11.754300 -0.000006 -0.000006 -0.002121 -0.030216 -17.801800
0.000000 0.000000 0.000000 0.000000 0.000000 -0.000000 1.879230 90.034700 3.825300 89.161600 -5.920420 12.682700 15.735700 0.000005 -0.000001 97.672600 84.043700 -99.676600 8.984550 -0.406207 -0.000000 4.073450 1.652630 -4.062520 16.377300 -0.000001 -0.000001 27.000300 1.223840 1.729910 6.456720 -0.000001 -0.000000 16.441600 0.966998 -10.728900 12.994200 -0.242716 4.980390 -91.634600 4.956840 -71.722900 5.348090 -0.000007 -0.000001 -62.331700 36.829900 -12.137300 24.328600 0.000019 0.000005 7.999730 23.237100 -19.606000 22.291600 -0.000001 0.000005 9.418100 5.324150 -0.615259 12.994500 -0.242716 -4.980390 89.987800 0.045910 -75.096200 -5.348130 -0.000001 -0.000004 -57.475500 -40.990300 -72.517000 -24.328900 0.000322 -0.000009 6.171030 2.056710 -71.642400 -22.291500 -0.000108 -0.000004 23.168200 5.439810 -4.279370 -2.192480 -6.469440 -0.000000 -174.471000 -14.517300 5.407280 39.081100 -0.000007 -0.000012 -0.167634 0.265238 32.293700 40.985400 -0.000006 -0.000013 1.491860 3.972440 -74.707000 11.754300 -0.000000 0.000003 -0.000143 -0.001398 -16.630800 -2.192510 6.469440 -0.000001 170.429000 18.892800 -173.137000 -39.081100 -0.002282 -0.040193 -0.203486 0.345497 30.901500 -40.985400 0.000008 0.000006 2.559740 14.794100 -73.971300 -11.754300 -0.000006 -0.000006 -0.002132 -0.030354 -17.807400
